<?xml version="1.0" standalone="no"?>
<!DOCTYPE svg PUBLIC "-//W3C//DTD SVG 20010904//EN"
 "http://www.w3.org/TR/2001/REC-SVG-20010904/DTD/svg10.dtd">
<svg version="1.0" xmlns="http://www.w3.org/2000/svg"
 width="512.000000pt" height="512.000000pt" viewBox="0 0 512.000000 512.000000"
 preserveAspectRatio="xMidYMid meet">

<g transform="translate(0.000000,512.000000) scale(0.100000,-0.100000)"
fill="#006b9f" stroke="none">
<path d="M320 4947 c-49 -16 -133 -102 -148 -153 -17 -59 -17 -1049 0 -1108
16 -55 99 -138 154 -154 30 -9 181 -12 556 -12 590 0 578 -2 651 80 24 26 49
66 55 88 17 56 17 1048 0 1104 -6 22 -31 62 -55 88 -73 82 -60 80 -657 79
-349 -1 -533 -5 -556 -12z m1095 -172 l25 -24 0 -511 0 -511 -25 -24 -24 -25
-511 0 -511 0 -24 25 -25 24 0 511 0 511 25 24 24 25 511 0 511 0 24 -25z"/>
<path d="M800 4636 l0 -85 -52 -24 c-67 -31 -124 -88 -155 -154 l-24 -53 -85
0 -84 0 0 -80 0 -80 84 0 85 0 24 -52 c31 -67 88 -124 155 -155 l52 -24 0 -85
0 -84 80 0 80 0 0 84 0 85 53 24 c67 30 123 86 154 155 l24 52 85 0 84 0 0 80
0 80 -84 0 -85 0 -24 53 c-31 68 -87 124 -154 154 l-53 24 0 85 0 84 -80 0
-80 0 0 -84z m143 -250 c104 -43 128 -175 47 -256 -66 -66 -156 -67 -221 -1
-124 123 13 325 174 257z"/>
<path d="M3680 4947 c-49 -16 -133 -102 -148 -153 -9 -30 -12 -181 -12 -554 0
-373 3 -524 12 -554 16 -55 99 -138 154 -154 30 -9 181 -12 556 -12 590 0 578
-2 651 80 24 26 49 66 55 88 17 56 17 1048 0 1104 -6 22 -31 62 -55 88 -73 82
-60 80 -657 79 -349 -1 -533 -5 -556 -12z m1095 -172 l25 -24 0 -511 0 -511
-25 -24 -24 -25 -511 0 -511 0 -24 25 -25 24 0 511 0 511 25 24 24 25 511 0
511 0 24 -25z"/>
<path d="M3840 4560 l0 -80 400 0 400 0 0 80 0 80 -400 0 -400 0 0 -80z"/>
<path d="M3840 4240 l0 -80 400 0 400 0 0 80 0 80 -400 0 -400 0 0 -80z"/>
<path d="M3840 3920 l0 -80 400 0 400 0 0 80 0 80 -400 0 -400 0 0 -80z"/>
<path d="M2957 4562 c-26 -26 -47 -52 -47 -57 0 -5 39 -49 87 -97 l88 -88
-663 0 -662 0 0 -80 0 -80 662 0 663 0 -90 -90 -90 -90 58 -58 57 -57 170 171
c153 153 170 174 170 204 0 30 -17 51 -167 202 -92 92 -172 168 -178 168 -6 0
-32 -22 -58 -48z"/>
<path d="M2215 3430 c-172 -35 -320 -148 -395 -304 -44 -93 -60 -166 -60 -279
l0 -79 60 -62 c63 -66 69 -76 45 -76 -26 0 -84 -61 -96 -100 -18 -58 -8 -183
17 -216 40 -54 70 -68 148 -72 l73 -4 12 -52 c24 -107 94 -220 180 -289 l40
-32 0 -112 1 -113 -133 -100 -134 -100 -163 0 c-98 0 -179 -5 -204 -12 -55
-16 -138 -99 -154 -154 -9 -30 -12 -181 -12 -553 l0 -512 25 -24 24 -25 1071
0 1071 0 24 25 25 24 0 512 c0 366 -3 523 -12 551 -6 22 -31 62 -55 88 -63 70
-100 80 -301 80 l-165 0 -134 100 -133 100 1 113 0 112 42 34 c82 65 155 183
178 287 l12 52 73 4 c78 4 108 18 148 72 18 23 21 42 21 125 0 92 -2 100 -29
135 -15 21 -40 42 -55 49 -14 6 -28 12 -30 14 -2 2 24 32 59 69 l63 65 -6 112
c-8 172 -57 288 -169 398 -70 69 -189 132 -282 148 -69 13 -630 13 -691 1z
m757 -192 c133 -66 214 -185 225 -330 l5 -73 -41 -40 -41 -39 0 37 c0 69 -10
73 -387 167 l-343 85 -181 -90 c-100 -50 -187 -99 -195 -110 -8 -11 -14 -35
-14 -54 l0 -35 -41 39 -41 40 5 73 c7 88 46 180 106 245 44 48 135 101 197
116 22 5 181 9 355 8 l315 -2 76 -37z m-276 -434 l265 -67 -3 -256 -3 -257
-37 -76 c-45 -91 -103 -147 -196 -191 -61 -29 -76 -32 -162 -32 -86 0 -101 3
-162 32 -93 44 -151 100 -196 191 l-37 76 -3 262 -3 263 118 60 c65 33 126 60
136 60 9 1 137 -29 283 -65z m-696 -364 l0 -40 -40 0 -40 0 0 40 0 40 40 0 40
0 0 -40z m1200 0 l0 -40 -40 0 -40 0 0 40 0 40 40 0 40 0 0 -40z m-640 -675
c41 0 94 3 118 8 l42 7 0 -101 c0 -55 4 -108 9 -117 5 -9 61 -55 125 -102 63
-47 115 -87 116 -90 0 -3 -92 -57 -205 -122 l-204 -116 -206 116 c-112 65
-205 119 -205 122 1 3 53 43 116 90 64 47 120 93 125 102 5 9 9 62 9 117 l0
101 43 -7 c23 -5 76 -8 117 -8z m-561 -802 c34 -174 71 -333 81 -353 24 -47
65 -84 120 -109 42 -19 64 -21 360 -21 296 0 318 2 360 21 55 25 96 62 120
109 10 20 47 179 81 353 l64 317 143 0 c138 0 144 -1 167 -25 l25 -24 0 -456
0 -455 -960 0 -960 0 0 455 0 456 25 24 c23 24 29 25 167 25 l143 0 64 -317z
m329 117 c115 -66 220 -120 232 -120 12 0 117 54 232 120 116 66 211 120 213
120 3 0 -93 -477 -101 -503 -3 -10 -15 -27 -27 -37 -20 -19 -36 -20 -317 -20
-281 0 -297 1 -317 20 -12 10 -24 27 -27 37 -8 26 -104 503 -101 503 2 0 97
-54 213 -120z"/>
<path d="M716 3230 l-131 -130 57 -57 58 -58 90 90 90 90 90 -90 90 -90 58 58
57 57 -131 130 c-115 115 -134 130 -164 130 -30 0 -49 -15 -164 -130z"/>
<path d="M3997 3282 c-26 -26 -47 -52 -47 -58 0 -5 58 -67 128 -137 113 -112
133 -127 162 -127 29 0 49 15 162 127 70 70 128 132 128 138 0 13 -92 105
-105 105 -5 0 -49 -39 -97 -87 l-88 -88 -88 88 c-48 48 -92 87 -98 87 -5 0
-31 -22 -57 -48z"/>
<path d="M320 2867 c-49 -16 -133 -102 -148 -153 -17 -59 -17 -1049 0 -1108
16 -55 99 -138 154 -154 30 -9 181 -12 556 -12 590 0 578 -2 651 80 24 26 49
66 55 88 17 56 17 1048 0 1104 -6 22 -31 62 -55 88 -73 82 -60 80 -657 79
-349 -1 -533 -5 -556 -12z m1095 -172 l25 -24 0 -511 0 -511 -25 -24 -24 -25
-511 0 -511 0 -24 25 -25 24 0 511 0 511 25 24 24 25 511 0 511 0 24 -25z"/>
<path d="M480 2160 l0 -80 80 0 80 0 0 80 0 80 -80 0 -80 0 0 -80z"/>
<path d="M800 2160 l0 -80 80 0 80 0 0 80 0 80 -80 0 -80 0 0 -80z"/>
<path d="M1120 2160 l0 -80 80 0 80 0 0 80 0 80 -80 0 -80 0 0 -80z"/>
<path d="M3680 2867 c-49 -16 -133 -102 -148 -153 -17 -59 -17 -1049 0 -1108
16 -55 99 -138 154 -154 30 -9 181 -12 556 -12 590 0 578 -2 651 80 24 26 49
66 55 88 17 56 17 1048 0 1104 -6 22 -31 62 -55 88 -73 82 -60 80 -657 79
-349 -1 -533 -5 -556 -12z m1095 -172 l25 -24 0 -511 0 -511 -25 -24 -24 -25
-511 0 -511 0 -24 25 -25 24 0 511 0 511 25 24 24 25 511 0 511 0 24 -25z"/>
<path d="M4363 2318 l-211 -211 -132 98 c-72 54 -133 95 -136 93 -2 -3 -24
-31 -48 -64 l-44 -58 171 -128 c131 -98 177 -128 201 -128 26 0 63 33 278 247
136 136 248 252 248 258 0 13 -92 105 -105 105 -6 0 -105 -95 -222 -212z"/>
</g>
</svg>
